<svg version="1.1" id="Layer_1" xmlns="http://www.w3.org/2000/svg" xmlns:xlink="http://www.w3.org/1999/xlink" x="0px" y="0px"
	 width="100%" viewBox="0 0 1024 1024" enable-background="new 0 0 1024 1024" xml:space="preserve">
<path fill="#000000" opacity="1.000000" stroke="none" 
	d="
M205.050751,657.000000 
	C205.073944,588.177002 205.075256,519.853943 205.141541,451.530975 
	C205.152527,440.204376 205.386078,428.876709 205.626343,417.551910 
	C205.922226,403.605225 217.632355,391.935669 231.623016,391.699066 
	C239.952698,391.558228 248.295975,391.910034 256.615204,391.583496 
	C261.337341,391.398193 262.483093,393.190430 262.475372,397.651093 
	C262.358307,465.307343 262.401978,532.963867 262.378265,600.620361 
	C262.376038,607.038635 263.110657,613.328918 266.330261,618.954834 
	C272.487946,629.714600 281.537720,635.586365 294.315002,635.978027 
	C327.919220,637.008240 360.855286,642.306030 392.882721,652.714294 
	C434.361969,666.194214 471.480042,687.145630 503.212799,717.307800 
	C510.902008,724.616516 515.272034,724.515503 522.858032,717.335876 
	C562.626038,679.697388 609.885010,656.533752 663.039368,644.703674 
	C685.514709,639.701538 708.234497,636.288757 731.242676,636.088867 
	C747.460022,635.947876 763.654846,623.520447 763.635559,602.118347 
	C763.574585,534.461975 763.609985,466.805450 763.616394,399.149017 
	C763.617065,391.700653 763.641663,391.691925 770.921753,391.677704 
	C777.754089,391.664337 784.586365,391.666534 791.418701,391.671661 
	C809.444031,391.685120 820.383545,402.198914 821.043091,420.213776 
	C821.177124,423.875183 821.084229,427.545105 821.084656,431.211121 
	C821.094177,525.530212 821.110596,619.849243 821.075806,714.168335 
	C821.074585,717.482971 820.789551,720.835083 820.248047,724.105347 
	C818.104858,737.050598 807.204773,746.356018 794.044983,746.364502 
	C725.555298,746.408691 657.065430,746.473083 588.576294,746.283142 
	C580.547058,746.260864 574.721252,748.595703 569.796631,755.184265 
	C558.803101,769.892395 543.379700,776.974060 525.432922,779.317932 
	C513.718811,780.847839 502.201782,780.063843 490.761169,777.389282 
	C476.224884,773.991028 464.398224,766.240845 455.591949,754.307190 
	C451.396454,748.621643 446.396423,746.319763 439.470459,746.331299 
	C371.647522,746.443726 303.819702,745.957458 236.004135,746.673645 
	C216.424896,746.880310 204.758728,732.577759 204.940781,715.487671 
	C205.146667,696.160278 205.028091,676.829346 205.050751,657.000000 
z"/>
<path fill="#000000" opacity="1.000000" stroke="none" 
	d="
M350.455780,397.458740 
	C385.760468,410.625671 420.689270,423.683289 455.648621,436.658539 
	C458.569672,437.742676 460.226471,439.562866 461.298920,442.436432 
	C474.800476,478.613586 488.371826,514.764709 501.949402,550.913452 
	C502.838196,553.279846 503.348816,555.646851 503.346771,558.203125 
	C503.312653,600.355835 503.331085,642.508545 503.319794,684.661255 
	C503.319397,686.132751 503.613525,687.666870 502.763123,689.062561 
	C500.942688,689.759338 500.021057,688.273438 498.918640,687.396729 
	C459.466705,656.020020 414.604706,636.338013 365.651367,625.272949 
	C342.181946,619.968079 318.388550,617.798279 294.456421,616.381836 
	C286.332245,615.900940 282.265320,611.350281 281.936188,603.098938 
	C281.750397,598.440918 281.875671,593.770142 281.875366,589.105103 
	C281.870056,512.630432 281.864319,436.155762 281.876556,359.681091 
	C281.876923,357.354889 281.853546,354.994659 282.212646,352.708649 
	C283.459351,344.772217 288.274109,340.811768 296.374786,341.075653 
	C326.126282,342.044800 355.201263,347.186096 383.767212,355.403198 
	C384.882507,355.723969 385.963837,356.169647 387.046082,356.595123 
	C387.489075,356.769226 387.892334,357.044464 389.524353,357.932556 
	C364.917572,367.089325 341.608673,375.763153 317.176544,384.854919 
	C328.813507,389.265198 339.450684,393.296539 350.455780,397.458740 
z"/>
<path fill="#000000" opacity="1.000000" stroke="none" 
	d="
M694.713318,379.400543 
	C675.700256,372.395325 657.063477,365.490509 638.250427,358.520386 
	C639.607239,356.002808 641.380920,356.036224 642.904419,355.567993 
	C671.373352,346.818024 700.592834,342.587189 730.259888,341.048584 
	C736.873596,340.705566 741.996948,344.459167 743.342224,350.918396 
	C743.880127,353.501038 744.062561,356.199768 744.064026,358.845886 
	C744.109497,439.309937 744.113159,519.773987 744.114502,600.238098 
	C744.114502,601.901611 744.145020,603.582581 743.931274,605.225525 
	C743.011902,612.290161 739.240601,615.992554 732.156860,616.391907 
	C704.379150,617.957764 676.803589,620.849426 649.764282,627.802429 
	C604.680481,639.395325 563.256897,658.427307 526.869446,687.806702 
	C526.228760,688.324097 525.506592,688.751648 524.783081,689.149658 
	C524.521973,689.293335 524.145386,689.227234 523.700134,689.267944 
	C522.002991,687.901367 522.743042,685.926514 522.741333,684.238342 
	C522.698853,642.423767 522.724792,600.609070 522.696472,558.794434 
	C522.694519,555.911499 523.199890,553.198059 524.211914,550.511841 
	C537.590332,515.002258 551.015991,479.510101 564.201477,443.928955 
	C565.752869,439.742706 568.136047,437.453156 572.191223,435.949493 
	C615.264343,419.978058 658.292542,403.885193 701.332581,387.824341 
	C703.022949,387.193573 704.894287,386.891541 706.509033,384.702759 
	C703.215271,381.781128 698.752869,381.400391 694.713318,379.400543 
z"/>
<path fill="#000000" opacity="1.000000" stroke="none" 
	d="
M599.906738,364.993500 
	C616.812439,371.460480 633.359009,377.781891 650.914001,384.488525 
	C647.237793,387.353668 644.008606,388.116455 641.000122,389.252472 
	C612.658325,399.954346 584.317993,410.660767 555.927612,421.232635 
	C552.493408,422.511475 550.598694,424.533813 549.325439,427.962891 
	C538.257996,457.769501 527.029602,487.516418 515.820557,517.270386 
	C515.244995,518.798096 514.881287,520.484375 513.475220,521.645630 
	C511.261871,521.413330 511.253418,519.422241 510.716919,518.001892 
	C499.716034,488.877563 488.644257,459.778900 477.897125,430.560913 
	C475.885315,425.091461 472.872375,421.975067 467.297302,419.947968 
	C438.360260,409.426239 409.580872,398.470886 380.752106,387.651825 
	C379.232330,387.081482 377.763123,386.376373 376.274445,385.735779 
	C376.893768,383.060089 379.041687,383.067017 380.611053,382.469299 
	C409.234436,371.567963 437.807953,360.527740 466.577057,350.023529 
	C472.715057,347.782440 475.883392,344.259033 478.052399,338.339020 
	C488.360321,310.204468 499.022308,282.199554 509.580322,254.156815 
	C510.433502,251.890717 511.047913,249.476364 512.673218,247.537598 
	C515.046753,248.393951 515.052002,250.454239 515.658203,252.061783 
	C526.699158,281.340515 537.822083,310.589508 548.615112,339.959595 
	C550.474731,345.020050 553.439819,347.717468 558.378296,349.471375 
	C572.180786,354.373413 585.834900,359.693085 599.906738,364.993500 
z"/>
</svg>